<svg width="28" height="22" viewBox="0 0 28 22" fill="none" xmlns="http://www.w3.org/2000/svg">
<path d="M3.33332 21.6667C2.59999 21.6667 1.97221 21.4056 1.44999 20.8833C0.927768 20.3611 0.666656 19.7333 0.666656 19V3.00001C0.666656 2.26668 0.927768 1.6389 1.44999 1.11668C1.97221 0.594455 2.59999 0.333344 3.33332 0.333344H24.6667C25.4 0.333344 26.0278 0.594455 26.55 1.11668C27.0722 1.6389 27.3333 2.26668 27.3333 3.00001V19C27.3333 19.7333 27.0722 20.3611 26.55 20.8833C26.0278 21.4056 25.4 21.6667 24.6667 21.6667H3.33332ZM14 12.3333L3.33332 5.66668V19H24.6667V5.66668L14 12.3333ZM14 9.66668L24.6667 3.00001H3.33332L14 9.66668ZM3.33332 5.66668V3.00001V19V5.66668Z" fill="#FF6700"/>
</svg>
