<svg width="28" height="28" viewBox="0 0 28 28" fill="none" xmlns="http://www.w3.org/2000/svg">
<path d="M14 27.3333C12.1778 27.3333 10.4555 26.9833 8.83332 26.2833C7.2111 25.5833 5.79443 24.6278 4.58332 23.4167C3.37221 22.2055 2.41666 20.7889 1.71666 19.1667C1.01666 17.5444 0.666656 15.8222 0.666656 14C0.666656 12.1555 1.01666 10.4278 1.71666 8.81666C2.41666 7.20555 3.37221 5.79443 4.58332 4.58332C5.79443 3.37221 7.2111 2.41666 8.83332 1.71666C10.4555 1.01666 12.1778 0.666656 14 0.666656C15.8444 0.666656 17.5722 1.01666 19.1833 1.71666C20.7944 2.41666 22.2055 3.37221 23.4167 4.58332C24.6278 5.79443 25.5833 7.20555 26.2833 8.81666C26.9833 10.4278 27.3333 12.1555 27.3333 14V15.9333C27.3333 17.2444 26.8833 18.3611 25.9833 19.2833C25.0833 20.2055 23.9778 20.6667 22.6667 20.6667C21.8667 20.6667 21.1222 20.4889 20.4333 20.1333C19.7444 19.7778 19.1778 19.3111 18.7333 18.7333C18.1333 19.3333 17.4278 19.8055 16.6167 20.15C15.8055 20.4944 14.9333 20.6667 14 20.6667C12.1555 20.6667 10.5833 20.0167 9.28332 18.7167C7.98332 17.4167 7.33332 15.8444 7.33332 14C7.33332 12.1555 7.98332 10.5833 9.28332 9.28332C10.5833 7.98332 12.1555 7.33332 14 7.33332C15.8444 7.33332 17.4167 7.98332 18.7167 9.28332C20.0167 10.5833 20.6667 12.1555 20.6667 14V15.9333C20.6667 16.5778 20.8667 17.0833 21.2667 17.45C21.6667 17.8167 22.1333 18 22.6667 18C23.2 18 23.6667 17.8167 24.0667 17.45C24.4667 17.0833 24.6667 16.5778 24.6667 15.9333V14C24.6667 11.0889 23.6167 8.58332 21.5167 6.48332C19.4167 4.38332 16.9111 3.33332 14 3.33332C11.0889 3.33332 8.58332 4.38332 6.48332 6.48332C4.38332 8.58332 3.33332 11.0889 3.33332 14C3.33332 16.9111 4.38332 19.4167 6.48332 21.5167C8.58332 23.6167 11.0889 24.6667 14 24.6667H20.6667V27.3333H14ZM14 18C15.1111 18 16.0555 17.6111 16.8333 16.8333C17.6111 16.0555 18 15.1111 18 14C18 12.8889 17.6111 11.9444 16.8333 11.1667C16.0555 10.3889 15.1111 9.99999 14 9.99999C12.8889 9.99999 11.9444 10.3889 11.1667 11.1667C10.3889 11.9444 9.99999 12.8889 9.99999 14C9.99999 15.1111 10.3889 16.0555 11.1667 16.8333C11.9444 17.6111 12.8889 18 14 18Z" fill="#FF6700"/>
</svg>
