<svg width="38" height="32" viewBox="0 0 38 32" fill="none" xmlns="http://www.w3.org/2000/svg">
<path d="M0.666667 32L19 0.333313L37.3333 32H0.666667ZM6.41667 28.6666H31.5833L19 6.99998L6.41667 28.6666ZM19 27C19.4722 27 19.8681 26.8403 20.1875 26.5208C20.5069 26.2014 20.6667 25.8055 20.6667 25.3333C20.6667 24.8611 20.5069 24.4653 20.1875 24.1458C19.8681 23.8264 19.4722 23.6666 19 23.6666C18.5278 23.6666 18.1319 23.8264 17.8125 24.1458C17.4931 24.4653 17.3333 24.8611 17.3333 25.3333C17.3333 25.8055 17.4931 26.2014 17.8125 26.5208C18.1319 26.8403 18.5278 27 19 27ZM17.3333 22H20.6667V13.6666H17.3333V22Z" fill="#FF6700"/>
</svg>
