<svg width="34" height="31" viewBox="0 0 34 31" fill="none" xmlns="http://www.w3.org/2000/svg">
<path d="M16.9999 31L14.5833 28.8334C11.7777 26.3056 9.45825 24.125 7.62492 22.2917C5.79159 20.4584 4.33325 18.8125 3.24992 17.3542C2.16659 15.8959 1.40964 14.5556 0.979085 13.3334C0.54853 12.1111 0.333252 10.8611 0.333252 9.58335C0.333252 6.97224 1.20825 4.79169 2.95825 3.04169C4.70825 1.29169 6.88881 0.416687 9.49992 0.416687C10.9444 0.416687 12.3194 0.722243 13.6249 1.33335C14.9305 1.94446 16.0555 2.80558 16.9999 3.91669C17.9444 2.80558 19.0694 1.94446 20.3749 1.33335C21.6805 0.722243 23.0555 0.416687 24.4999 0.416687C27.111 0.416687 29.2916 1.29169 31.0416 3.04169C32.7916 4.79169 33.6666 6.97224 33.6666 9.58335C33.6666 10.8611 33.4513 12.1111 33.0208 13.3334C32.5902 14.5556 31.8333 15.8959 30.7499 17.3542C29.6666 18.8125 28.2083 20.4584 26.3749 22.2917C24.5416 24.125 22.2221 26.3056 19.4166 28.8334L16.9999 31ZM16.9999 26.5C19.6666 24.1111 21.861 22.0625 23.5833 20.3542C25.3055 18.6459 26.6666 17.1597 27.6666 15.8959C28.6666 14.632 29.361 13.507 29.7499 12.5209C30.1388 11.5347 30.3333 10.5556 30.3333 9.58335C30.3333 7.91669 29.7777 6.5278 28.6666 5.41669C27.5555 4.30558 26.1666 3.75002 24.4999 3.75002C23.1944 3.75002 21.986 4.11808 20.8749 4.85419C19.7638 5.5903 18.9999 6.5278 18.5833 7.66669H15.4166C14.9999 6.5278 14.236 5.5903 13.1249 4.85419C12.0138 4.11808 10.8055 3.75002 9.49992 3.75002C7.83325 3.75002 6.44436 4.30558 5.33325 5.41669C4.22214 6.5278 3.66659 7.91669 3.66659 9.58335C3.66659 10.5556 3.86103 11.5347 4.24992 12.5209C4.63881 13.507 5.33325 14.632 6.33325 15.8959C7.33325 17.1597 8.69436 18.6459 10.4166 20.3542C12.1388 22.0625 14.3333 24.1111 16.9999 26.5Z" fill="#FF6700"/>
<path d="M16.9999 26.5C19.6666 24.1111 21.861 22.0625 23.5833 20.3542C25.3055 18.6459 26.6666 17.1597 27.6666 15.8959C28.6666 14.632 29.361 13.507 29.7499 12.5209C30.1388 11.5347 30.3333 10.5556 30.3333 9.58335C30.3333 7.91669 29.7777 6.5278 28.6666 5.41669C27.5555 4.30558 26.1666 3.75002 24.4999 3.75002C23.1944 3.75002 21.986 4.11808 20.8749 4.85419C19.7638 5.5903 18.9999 6.5278 18.5833 7.66669H15.4166C14.9999 6.5278 14.236 5.5903 13.1249 4.85419C12.0138 4.11808 10.8055 3.75002 9.49992 3.75002C7.83325 3.75002 6.44436 4.30558 5.33325 5.41669C4.22214 6.5278 3.66659 7.91669 3.66659 9.58335C3.66659 10.5556 3.86103 11.5347 4.24992 12.5209C4.63881 13.507 5.33325 14.632 6.33325 15.8959C7.33325 17.1597 8.69436 18.6459 10.4166 20.3542C12.1388 22.0625 14.3333 24.1111 16.9999 26.5Z" fill="#FF6700"/>
</svg>
