<svg width="30" height="34" viewBox="0 0 30 34" fill="none" xmlns="http://www.w3.org/2000/svg">
<path d="M25 33.6666C23.6111 33.6666 22.4306 33.1805 21.4583 32.2083C20.4861 31.2361 20 30.0555 20 28.6666C20 28.4722 20.0139 28.2708 20.0417 28.0625C20.0694 27.8541 20.1111 27.6666 20.1667 27.5L8.41667 20.6666C7.94444 21.0833 7.41667 21.4097 6.83333 21.6458C6.25 21.8819 5.63889 22 5 22C3.61111 22 2.43056 21.5139 1.45833 20.5416C0.486111 19.5694 0 18.3889 0 17C0 15.6111 0.486111 14.4305 1.45833 13.4583C2.43056 12.4861 3.61111 12 5 12C5.63889 12 6.25 12.118 6.83333 12.3541C7.41667 12.5903 7.94444 12.9166 8.41667 13.3333L20.1667 6.49998C20.1111 6.33331 20.0694 6.14581 20.0417 5.93748C20.0139 5.72915 20 5.52776 20 5.33331C20 3.94442 20.4861 2.76387 21.4583 1.79165C22.4306 0.819424 23.6111 0.333313 25 0.333313C26.3889 0.333313 27.5694 0.819424 28.5417 1.79165C29.5139 2.76387 30 3.94442 30 5.33331C30 6.7222 29.5139 7.90276 28.5417 8.87498C27.5694 9.8472 26.3889 10.3333 25 10.3333C24.3611 10.3333 23.75 10.2153 23.1667 9.97915C22.5833 9.74303 22.0556 9.41665 21.5833 8.99998L9.83333 15.8333C9.88889 16 9.93056 16.1875 9.95833 16.3958C9.98611 16.6041 10 16.8055 10 17C10 17.1944 9.98611 17.3958 9.95833 17.6041C9.93056 17.8125 9.88889 18 9.83333 18.1666L21.5833 25C22.0556 24.5833 22.5833 24.2569 23.1667 24.0208C23.75 23.7847 24.3611 23.6666 25 23.6666C26.3889 23.6666 27.5694 24.1528 28.5417 25.125C29.5139 26.0972 30 27.2778 30 28.6666C30 30.0555 29.5139 31.2361 28.5417 32.2083C27.5694 33.1805 26.3889 33.6666 25 33.6666ZM25 6.99998C25.4722 6.99998 25.8681 6.84026 26.1875 6.52081C26.5069 6.20137 26.6667 5.80553 26.6667 5.33331C26.6667 4.86109 26.5069 4.46526 26.1875 4.14581C25.8681 3.82637 25.4722 3.66665 25 3.66665C24.5278 3.66665 24.1319 3.82637 23.8125 4.14581C23.4931 4.46526 23.3333 4.86109 23.3333 5.33331C23.3333 5.80553 23.4931 6.20137 23.8125 6.52081C24.1319 6.84026 24.5278 6.99998 25 6.99998ZM5 18.6666C5.47222 18.6666 5.86806 18.5069 6.1875 18.1875C6.50694 17.868 6.66667 17.4722 6.66667 17C6.66667 16.5278 6.50694 16.1319 6.1875 15.8125C5.86806 15.493 5.47222 15.3333 5 15.3333C4.52778 15.3333 4.13194 15.493 3.8125 15.8125C3.49306 16.1319 3.33333 16.5278 3.33333 17C3.33333 17.4722 3.49306 17.868 3.8125 18.1875C4.13194 18.5069 4.52778 18.6666 5 18.6666ZM25 30.3333C25.4722 30.3333 25.8681 30.1736 26.1875 29.8541C26.5069 29.5347 26.6667 29.1389 26.6667 28.6666C26.6667 28.1944 26.5069 27.7986 26.1875 27.4791C25.8681 27.1597 25.4722 27 25 27C24.5278 27 24.1319 27.1597 23.8125 27.4791C23.4931 27.7986 23.3333 28.1944 23.3333 28.6666C23.3333 29.1389 23.4931 29.5347 23.8125 29.8541C24.1319 30.1736 24.5278 30.3333 25 30.3333Z" fill="#FF6700"/>
</svg>
