<svg width="29" height="29" viewBox="0 0 29 29" fill="none" xmlns="http://www.w3.org/2000/svg">
<path d="M0.333344 28.6667L2.93334 19.7333C2.51112 18.8222 2.19445 17.8889 1.98334 16.9333C1.77223 15.9778 1.66668 15 1.66668 14C1.66668 12.1555 2.01668 10.4222 2.71668 8.79999C3.41668 7.17777 4.36668 5.76666 5.56668 4.56666C6.76668 3.36666 8.17779 2.41666 9.80001 1.71666C11.4222 1.01666 13.1556 0.666656 15 0.666656C16.8445 0.666656 18.5778 1.01666 20.2 1.71666C21.8222 2.41666 23.2333 3.36666 24.4333 4.56666C25.6333 5.76666 26.5833 7.17777 27.2833 8.79999C27.9833 10.4222 28.3333 12.1555 28.3333 14C28.3333 15.8444 27.9833 17.5778 27.2833 19.2C26.5833 20.8222 25.6333 22.2333 24.4333 23.4333C23.2333 24.6333 21.8222 25.5833 20.2 26.2833C18.5778 26.9833 16.8445 27.3333 15 27.3333C14 27.3333 13.0222 27.2278 12.0667 27.0167C11.1111 26.8055 10.1778 26.4889 9.26668 26.0667L0.333344 28.6667ZM4.26668 24.7333L8.53334 23.4667C8.84446 23.3778 9.16112 23.3444 9.48334 23.3667C9.80557 23.3889 10.1111 23.4667 10.4 23.6C11.1111 23.9555 11.8556 24.2222 12.6333 24.4C13.4111 24.5778 14.2 24.6667 15 24.6667C17.9778 24.6667 20.5 23.6333 22.5667 21.5667C24.6333 19.5 25.6667 16.9778 25.6667 14C25.6667 11.0222 24.6333 8.49999 22.5667 6.43332C20.5 4.36666 17.9778 3.33332 15 3.33332C12.0222 3.33332 9.50001 4.36666 7.43334 6.43332C5.36668 8.49999 4.33334 11.0222 4.33334 14C4.33334 14.8 4.42223 15.5889 4.60001 16.3667C4.77779 17.1444 5.04445 17.8889 5.40001 18.6C5.55557 18.8889 5.6389 19.1944 5.65001 19.5167C5.66112 19.8389 5.62223 20.1555 5.53334 20.4667L4.26668 24.7333Z" fill="#FF6700"/>
</svg>
